<?xml version="1.0" encoding="UTF-8"?>
<svg id="Livello_1" data-name="Livello 1" xmlns="http://www.w3.org/2000/svg" viewBox="0 0 1000 1000">
  <defs>
    <style>
      .cls-1 {
        stroke-width: 12px;
      }

      .cls-1, .cls-2, .cls-3, .cls-4, .cls-5, .cls-6 {
        stroke: #0e59ce;
        stroke-miterlimit: 10;
      }

      .cls-1, .cls-3, .cls-4 {
        fill: none;
      }

      .cls-7 {
        font-family: HelveticaNowDisplay-Medium, 'Helvetica Now Display';
        font-size: 35.4px;
        font-weight: 500;
      }

      .cls-7, .cls-8, .cls-2, .cls-6 {
        fill: #0e59ce;
      }

      .cls-9 {
        fill: #00933f;
      }

      .cls-10 {
        fill: #f12636;
      }

      .cls-11, .cls-5 {
        fill: #fff;
      }

      .cls-2 {
        stroke-width: 2px;
      }

      .cls-12 {
        letter-spacing: -.05em;
      }

      .cls-3 {
        stroke-width: 10px;
      }

      .cls-13 {
        letter-spacing: 0em;
      }

      .cls-14 {
        letter-spacing: 0em;
      }

      .cls-4 {
        stroke-width: 11px;
      }

      .cls-5 {
        stroke-width: 3px;
      }

      .cls-15 {
        letter-spacing: 0em;
      }

      .cls-6 {
        stroke-width: .75px;
      }

      .cls-16 {
        letter-spacing: .01em;
      }

      .cls-17 {
        letter-spacing: .01em;
      }

      .cls-18 {
        letter-spacing: 0em;
      }
    </style>
  </defs>
  <rect class="cls-11" y="0" width="1000" height="1000"/>
  <g>
    <g>
      <g>
        <g>
          <path class="cls-8" d="M146.67,482.06c-4.82-2.29-9.73-3.9-14.78-5.89-3.89-1.82-6.79-4.52-10.09-7.01-6.77-5.74-16.94-13.28-13.55-23.56,3.94-10.18,10.14-19.29,17.8-26.86,12.74-13.52,28.74-23.85,45.15-32.37,24.08-13.41,50.41-21.62,76.62-29.35,2.72-.89,9.27-2.69,13.62-3.73,21.26-5.28,43.31-10.19,64.76-14.72,13.52-2.32,27.37-5.25,40.98-7.64,8.47-1.37,22.5-3.53,31-4.9,15.56-2.02,39.3-5.71,54.87-7.91,4.49-.58,9.18-1.93,13.7-2.49,0,0-.52,.11-.52,.11,1.25-.32,2.68-.56,4.17-.32,2.49,.27,5.13,2.72,4.9,5.64-.18,1.88-.5,2.25-.96,3.6-.43,1.15-1.15,2.56-2,3.57-.78,.94-1.82,1.92-2.65,2.74-1.76,1.65-2.93,3.01-5.1,4.5-1.14,.69-2.56,1.74-3.41,2.7-1.14,2.38-.45,4.25,.55,7.08,1.19,3.26,2.92,6.08,5.07,7.75,1.28,.98,2.78,1.57,4.29,2.27,2.68,1.16,8.17,3.51,10.85,4.69,5.42,2.31,11.02,4.14,16.54,6.43,3.49,1.47,7.31,2.98,10.88,4.24,7.15,2.76,14.83,3.23,22.41,4.38,11.56,1.62,23.42,2.12,35.11,2.56,11.66,.24,23.68,1.09,35.29,.58,3.79-.38,8.02-.53,11.74-.58,1.95-.26,4.39-.41,6.37-.33,6.08,.3,23.89,1.31,29.82,1.61,17.93,1.07,35.83,2.24,53.69,4.38,24.73,4.23,51.43,9.87,76.11,14.53,6.42,1.31,5.84,1.03,11.42,1.72,0,0-1.17,9.26-1.17,9.26l-5.99-.79c-20.39-4.01-43.97-9.06-64.29-13.01-5.55-1.1-11.77-2.26-17.35-3.25-5.81-.79-11.59-1.38-17.49-1.85-18.2-1.7-40.74-2.87-59.21-3.87-2.83-.13-5.69-.43-8.41-.29-3.47,.45-6.91,.3-10.3,.5-13.57,1.27-26.93-.04-40.47-.21-16.06-.34-31.96-1.55-47.87-4.04-8.13-1.02-16.01-4.33-23.59-7.37-5.47-2.24-11.21-4.08-16.73-6.41,0,0-5.47-2.34-5.47-2.34-2.98-1.33-7.29-2.9-10.06-4.57-6.55-4.01-10.77-12.66-11.43-19.96-.3-5.55,2.15-9.54,6.67-12.6,1.44-.97,1.74-1.05,3.04-2.35,1.34-1.29,2.75-2.63,4-4,.03-.04-.03,.04,.01-.02,.06-.09,.11-.17,.16-.25,.1-.17,.18-.35,.31-.7,.13-.34,.35-.95,.41-1.15,.04-.08,0-.18-.06,.5-.16,1.76,1.49,3.82,3.11,3.87-1.38,.33-2.87,.45-4.27,.74-9.08,2.11-21.67,3.75-30.9,5.34-4.3,.65-16.09,2.62-20.54,3.37-2.31,.37-8.16,1.31-10.4,1.61-2.29,.24-14.48,2.53-16.98,2.96-4.54,.85-15.91,2.84-20.31,3.72-11.86,2.38-23.79,5.04-35.76,7.35-3.2,.58-8.33,2.03-11.48,2.79-21.88,5.88-44.74,11.39-66.26,18.23-12.83,4.05-25.69,8.62-38.53,12.75-8.41,2.72-16.8,5.2-24.96,8.57-11.63,4.84-25.32,10.15-35.96,16.89-7.51,4.65-13.98,10.12-20.31,16.36-6.96,6.48-12.49,14.55-15.97,23.23-.27,.81-.24,.85-.21,1.26,.51,3.26,3.55,5.92,6.08,8.33,3.8,3.48,8.5,7.33,12.81,9.76,2.85,1.12,5.67,1.97,8.69,3.1,2.19,.8,4.36,1.64,6.51,2.54l-3.75,8.55h0Z"/>
          <path class="cls-3" d="M616.69,381.36c.11-.54,.27-1.32,.45-2.26,.74-3.9,1.21-6.37,1.43-9.19,.16-2.06-.03-1.55,.1-5.53,.13-3.95,.31-4.25,.4-6.85,.08-2.51-.09-5.5-.54-11.36-.15-2.01-.31-4.02-.46-6.03l.85-15.48c-.13-3.58-.26-7.17-.4-10.75-.07-3.71-.14-7.42-.21-11.13-.05-3.08-.1-6.16-.15-9.24-.02-3.54-.04-7.07-.06-10.61,0-3.6,.02-7.2,.03-10.8,.05-2.08,.1-4.15,.15-6.23-.03-2.39-.06-4.78-.09-7.17,.04-4.21,.07-8.43,.11-12.64,.12-13.67,.62-10.96,.47-15.1,0,0-.11-3.22,.9-11.66,.04-.3,.13-1.07,.53-1.98,.19-.44,1.72-3.81,5.09-4.28,2.73-.37,4.76,1.42,5.2,1.81,.96,.85,1.85,2.09,2.7,5.27,.47,1.78,1.43,6.06,.72,13.58-.18,1.88-.63,3.4-1.07,7.03-.2,1.68-.32,3.08-.4,4.01,.09,2.46,.14,4.3,.17,5.38,.06,2.07,.08,2.88,.38,4.06,.27,1.08,.69,2.06,1.48,3.46,1.55,2.74,3.17,4.61,3.95,5.53,2.84,3.33-1.81-1.54,12.02,14.7,.79,.99,1.58,1.97,2.37,2.96,2.12,2.83,4.24,5.66,6.36,8.51,2.14,2.88,17.78,24.88,29.54,40.43,5.3,7.01,10.24,14.32,15.52,21.35,2.45,3.26,4.59,5.47,8.16,10.15,2.13,2.79,6.02,8.01,9.37,12.63,.66,.91,2.22,3.06,4.42,5.87,1.21,1.54,2.24,2.79,2.91,3.6,.9,1.1,1.8,2.3,2.7,3.58,.52,.75,.61,1.23,1.14,1.69,.95,.83,2.18,.98,3.11,.97"/>
          <path class="cls-1" d="M740.16,394.06c-.21-.75-1.18-4.1-2.45-7.01-.7-1.61-1.72-3.62-1.92-4-.26-.49-.36-.69-.36-.69-.29-.54-.39-.7-.65-1.24-.39-.8-.63-1.7-1.74-4.29-.36-.84-.85-2.07-1.31-3.64-.37-.84-.88-2.06-1.42-3.55-.68-1.87-1.11-3.35-1.77-5.61-.28-.98-.65-2.29-1.07-3.85-.39-2.26-.78-4.52-1.17-6.78-.32-2.7-.53-4.98-.68-6.7-.19-2.31-.31-3.75-.37-5.82-.06-2.02-.03-3.79-.01-5.11,.02-1.37,.05-2.51,.08-3.5,.1-3.18,.15-3.08,.15-4.4,0-2.03-.11-2.09-.12-4.49,0-1.74,.06-1.74,.05-3.52,0-1.09-.04-2.11-.11-4.09-.11-2.96-.15-3.09-.17-4.49-.02-1.31,0-1.55,.03-3.87,.03-3.21-.02-3.13,0-5.29,.03-2.54,.11-2.88,.19-6.23,.06-2.51,.05-3.46,.08-4.86,.05-2.6,.18-3.71,.73-10.44,.32-3.85,.72-7.69,1.06-11.54,.29-3.2,.41-4.74,1.29-6.76,1.03-2.39,2.68-4.48,3.21-5.15,.94-1.19,2-2.32,2.49-2.85,.39-.41,1.17-1.24,2.23-2.24,1.46-1.38,2.72-2.44,3.59-3.13,.5-.4,1.19-.96,2.08-1.59,1.23-.88,2.17-1.44,4.41-2.72,3.37-1.93,5.06-2.89,6.71-3.73,1.12-.57,2.08-1.05,3.53-1.73,1.85-.87,2.68-1.19,4.19-1.99,2.24-1.2,4-2.29,5.12-3,1.85-.86,3.7-1.72,5.55-2.58,2.16-1.27,4.32-2.54,6.49-3.81,3.23-1.69,6.46-3.37,9.69-5.06,3.48-1.44,6.96-2.87,10.44-4.31,5.15-2.13,8.08-2.83,9.08-3.12,2.11-.61,3.9-1.05,5.19-1.35,1.35-.4,2.89-.78,4.6-1.07,1.81-.3,3.48-.45,4.95-.5,2.17-.21,4.02-.33,5.44-.41,2.6-.14,3.9-.21,5.47-.13,1.4,.07,1.9,.18,4.47,.35,1.31,.09,2.38,.14,3.08,.17,.79,.16,1.89,.45,3.12,1.02,.8,.37,1.75,.8,2.75,1.68,1.06,.94,1.64,1.9,2.19,2.82,.58,.97,.87,1.71,1.43,3.1,.4,1,.92,2.37,1.44,4.05,.39,.44,.91,.93,1.59,1.36,2.12,1.33,4.34,1.17,5.21,1.05,.86-.21,2.17-.48,3.8-.64,.83-.08,1.62-.12,5.47-.08,2.31,.02,3.47,.03,4.43,.07,1.51,.05,3.48,.15,5.8,.36,.88,.14,2.39,.38,4.29,.68,2.91,.47,3.51,.58,4.23,1.13,1.09,.83,1.63,2.02,2.07,2.98,.53,1.17,.72,2.15,.8,2.56,.61,3.36,.25,7.7,.15,9.06-.36,4.93,.35,4.04,.07,10.84-.05,1.17-.05,.82-.43,7.55-.2,3.57-.2,3.72-.26,4.44-.29,3.6-.69,5.11-1.18,8.4-.6,4.08-.25,3.6-.98,10.1-.43,3.89-.54,3.82-1.17,9.16-.32,2.73-.41,3.7-.98,8.97-.38,3.48-.29,2.64-1.16,10.57-1.37,12.48-1.21,11.2-1.52,13.88-.37,3.23-.28,2.3-1.62,13.5-.33,2.78-.58,4.88-.9,7.65-.2,1.76-.4,3.57-.81,7.17-.6,5.39-.56,5.31-.72,6.51-.17,1.36-.75,5.88-1.64,9.35-.97,3.77-3.63,8.16-8.95,16.94-1.94,3.21-3.32,5.31-5.52,7.67-1.57,1.69-2.97,2.86-4.97,4.56-3.1,2.62-4.65,3.93-6.29,4.57-1.61,.63-2.63,.62-7.64,.8-9.7,.34,7.28-.11-8.39,.33-5.54,.16-7.06,.13-14.71,.27-6.72,.13-6.43,.15-7.97,.14-4.72-.02-11.75-.39-11.75-.39-3.07-.17-6.44-.36-10.07-.59"/>
          <path class="cls-3" d="M153.07,475.28l23.89-11.28,8.83-5.71,15.79-9.15,12.41-6.68c3.31-1.22,6.56-2.42,9.87-3.65,3.94-.86,8.01-1.69,12.22-2.46,2.88-.53,5.7-1,8.48-1.44,2.69-.27,5.42-.53,8.2-.76,2.32-.19,4.62-.36,6.88-.51,2.44-.44,5.05-.83,7.82-1.13,2.05-.23,4.03-.39,5.93-.5,1.08,1.09,1.56,1.57,2.64,2.66-.44,8.56-.89,17.11-1.33,25.67-.23,5.61-.47,11.23-.7,16.84l-.43,21.89,.04,6.6-19.43,.12c-79.98,.89-113.07,1.47-116.3,1.84-.1,.01-.71,.08-1.52,.13-1.02,.05-6.26,.32-9.09-1.22-5.17-2.83-6.56-14.03-1.68-19.58,1.02-1.16,2.16-1.9,3.1-2.38,2.09-.72,4.23-1.48,6.4-2.3,1.51-.57,15.73-6.07,17.97-7Z"/>
          <path class="cls-1" d="M275.95,496.01c3.01-.71,6.03-1.42,9.04-2.13,2.56-.28,5.12-.57,7.68-.85,1.7-.01,3.4-.02,5.09-.03,2.55-.06,5.09-.13,7.64-.19,2.45,.17,4.91,.35,7.36,.52,3.43,.35,6.86,.69,10.29,1.04"/>
          <path class="cls-8" d="M350.84,525.83c-22.35-10.85-40.23-36.86-39.88-62.14,.41-20.53,12.04-40.45,29.89-50.77,18.12-10.48,41.53-9.23,59.36,1.2,17.83,10.29,28.34,30.15,29.46,50.47,.61,13.27-4.96,26.83-14.91,35.47-4.75,4.21-10.3,7.5-16.29,9.45,2.65-1.63,5.15-3.41,7.43-5.44,13.81-11.65,19.16-29.96,13.36-47.01-6-19.52-20.41-34.11-40.6-37.57-32.33-6.52-59.62,21.27-57.61,53.14,.67,8.78,3.41,16.95,7.36,25,5.16,10.99,13,20.55,22.43,28.21h0Z"/>
          <path class="cls-8" d="M795.47,522.25c18.78-10.34,28.44-28.88,30.2-49.75,.73-9.8-.83-20.13-2.98-29.63-4.69-18.53-24.84-29.22-43.03-28.95-12.01,0-24.1,3.1-34.32,9.45-8.75,5.16-16.12,12.73-19.41,22.45-4.19,12.12-2.35,25.85,1.89,37.96,4.34,12.81,12.26,23.98,22.88,32.45,5.34,4.4,11.36,7.8,17.5,11.01-1.68-.5-3.31-1.13-4.96-1.68-18.65-6.4-34.51-20.81-42.17-39.09-11.54-25.77-8.65-54.17,16.29-70.64,12.29-8.59,27.4-12.99,42.34-12.84,20-.17,40.88,10.78,49.36,29.41,2.69,5.99,3.48,12.94,4.06,19.22,3.64,28.4-8.97,60.72-37.64,70.64h0Z"/>
          <path class="cls-3" d="M739.58,511.75c-1.91,.19-3.85,.35-5.82,.49-5.43,.39-10.66,.57-15.66,.58l-9.66,.06-8.28,.05-15,.09-7.07,.04-9.9,.06-14.86,.09-11.46,.07c-8.16-.22-16.31-.44-24.47-.66-.98-.78-3.42-2.94-4.27-6.55-1.02-4.32,.66-9.01,4.27-12.24,2.02,.08,9.36,.35,15.37,.28,1-.01,2.83-.04,5.16-.17,2.16-.12,3.62-.21,5.59-.49,.69-.1,2.59-.39,5.02-1.01,.88-.23,3.49-.89,6.74-2.24,1.77-.74,3.68-1.62,5.68-2.69,1.95-1.04,3.72-2.11,5.29-3.15,1.13-.93,2.61-1.78,3.38-2.78,.77-1,.65-3.33-.95-4.52s-2.7-1.96-4.19-2.95c-2.01-1.32-3.97-2.49-5.82-3.5,5-3.1,9.03-5.69,11.77-7.47,5.97-3.88,6.9-4.63,10.99-7.14,4.38-2.69,4.35-2.46,10.72-6.29,4.59-2.76,4.33-2.7,6.92-4.22,1.77-1.04,3.96-2.32,6.91-3.79,.75-.38,2.96-1.48,5.31-2.45,2.81-1.17,6.93-2.61,12.32-3.61"/>
          <path class="cls-8" d="M109.28,451.12c4.45-5.54,9.78-9.74,15.09-13.98,5.27-4.28,10.88-8.07,16.77-11.42,11.6-7,23.86-12.94,36.56-17.76,38.05-13.87,77.71-21.94,117.44-29.31,26.56-4.68,53.03-8.81,79.87-11.89,10.14-1.09,20.79-1.86,31.14-1.18,10.56,.54,21.26,2.5,31.24,5.78,6.68,2.12,12.92,4.6,19.13,6.82,5.48,1.87,13.74,4.88,18.97,7.05,18.14,7.17,36.72,13.95,55.9,16.87,30.63,3.56,69.08,6,99.83,9.13,20.04,1.92,40.36,2.07,60.14,6.9,6.61,1.51,13.13,3.29,19.56,5.37,6.44,2.05,12.78,4.38,18.99,6.99l-1.12,3.02c-12.68-4.07-25.57-7.39-38.59-9.8-19.68-3.85-39.67-3.51-59.65-4.99-19.99-1.51-40.02-2.61-60.05-3.36-13.3-.64-27.1-.54-40.45-1.33-20.81-1.61-40.75-7.46-59.97-14.9-12.13-4.63-25.34-9.45-37.3-13.82-31.12-11.03-64.38-5.26-96.52-2.66-26.54,2.7-52.95,6.34-79.12,11.62-26,5.36-52.34,10.59-77.44,19.17-15.44,5.72-30.06,13.89-43.96,22.71-5.76,3.24-11.47,6.63-16.73,10.61-2.62,1.96-5.16,4.06-7.25,6.41l-2.5-2.02h0Z"/>
          <path class="cls-4" d="M814.22,407.93c1.48,1.5,3.72,3.69,6.61,6.2,4.35,3.77,3.98,2.88,5.92,4.84,3.12,3.14,9.1,10.48,9.77,11.09,.32,.28,.65,.55,.65,.55,.13,.1,.26,.21,.4,.31,3.76,2.82,8.06,4.35,11.29,5.5,3.9,1.39,5.76,1.56,8.33,3.58,1.23,.96,4.14,3.31,4.9,7.14,.38,1.9,0,3.47-.75,6.61-.33,1.39-1.11,4.25-3.45,9.3-1.32,2.85-2.02,3.93-3.5,6.77-1.32,2.53-3.16,6.26-5.12,11.05,4.08-.91,8.17-1.82,12.25-2.73,1.13-.34,2.75-.83,4.68-1.46,8.75-2.86,10.75-4.25,12.1-3.35,2.34,1.57,.34,8.59-1,12.52-1.04,4.32-2.09,8.63-3.13,12.95-1.33,5.56-2.66,11.11-3.98,16.67h-39.11c-6.01-.21-6.22-.07-18.84-.72"/>
          <path class="cls-8" d="M613.67,511.51c-49.68,1.29-111.58,.98-161.51,1.66-8.2,.04-16.33,.23-24.63-.41-6.36-.46-14.27-2.28-14.4-10.16,.05-5.34,4.53-10.12,7.68-13.47,7.74-8.54,19.72-12.15,30.44-15.16,5.39-1.32,10.8-2.5,16.41-2.44,0,0,.21,1.5,.21,1.5-4.8,1.8-9.91,4.35-14.55,6.6-7.64,3.89-15.58,7.78-22.26,13.09-2.58,2.57-6.82,6.86-7.86,9.89,.01-.12-.03-.45-.22-.74-.07-.06-.06-.13-.11-.17-.03-.05-.12-.1-.12-.11,0-.03-.03-.05-.05-.04l.05,.02c3.89,1.42,9.01,1.14,13.34,1.31,16,.1,32.38-.23,48.36-.13,32.14,.15,97,.7,129.14,1.08,0,0,.07,7.69,.07,7.69h0Z"/>
          <polygon class="cls-5" points="741.02 513.69 741.15 515.66 742.99 515.55 741.02 513.69"/>
          <path class="cls-6" d="M800.37,519.97c4.96,.1,9.91,.21,14.87,.31,.3-3.48,.61-6.96,.91-10.44-5.26,3.38-10.52,6.76-15.78,10.13Z"/>
        </g>
        <g>
          <path class="cls-8" d="M135.65,544.63h55.18l-16.97,85.33h55.18l16.97-85.33h55.18l-23.73,119.46H111.92l23.73-119.46Z"/>
          <path class="cls-8" d="M355.25,583.96l-15.87,80.12h-55.18l23.73-119.46h55.18l51.32,19.71,3.86-19.71h55.18l-23.73,119.46h-55.19l12-60.41-51.32-19.71Z"/>
          <path class="cls-8" d="M511.68,664.09h-55.18l23.73-119.46h55.18l-23.73,119.46Z"/>
          <path class="cls-8" d="M707.69,544.63l-15.31,76.79h-110.37l-8.42,42.66h-55.18l23.73-119.46h165.55Zm-61.94,34.13h-55.18l-1.66,8.53h55.19l1.66-8.53Z"/>
          <path class="cls-8" d="M879.98,544.63l-15.31,76.79h-31.18l31.32,42.66h-63.74l-31.32-42.66h-15.45l-8.42,42.66h-55.18l23.73-119.46h165.55Zm-61.94,34.13h-55.18l-1.66,8.53h55.19l1.66-8.53Z"/>
        </g>
        <g>
          <path class="cls-2" d="M126.55,714.35v20.36h-5.39v-43.72h23.86c13.08,0,20.01,4.64,20.01,11.5,0,5.57-5.01,9.18-12.33,10.25,6.74,1.06,11.28,3.98,11.28,11.42v1.7c0,3.06-.37,7.16,.85,8.86h-5.38c-1.23-1.88-.96-5.37-.96-9.13v-1.11c0-7.13-3.19-10.11-15.82-10.11h-16.12Zm0-3.22h15.9c11.55,0,16.89-2.85,16.89-8.56,0-5.33-5.26-8.37-15.5-8.37h-17.3v16.93Z"/>
          <path class="cls-2" d="M203.49,719.7l-8.35,15.01h-5.39l24.27-43.72h6.31l25.31,43.72h-5.78l-8.54-15.01h-27.82Zm26.09-3.22c-7.32-12.91-11.09-19.15-12.42-22.11h-.09c-1.61,3.33-5.84,11.06-11.76,22.11h24.27Z"/>
          <path class="cls-2" d="M321.01,722.99c-3.11,6.96-10.9,12.22-24.96,12.22-19.05,0-29.08-9.99-29.08-22.3s9.85-22.55,29.19-22.55c14.35,0,22.78,5.28,24.94,12.59h-5.3c-2.99-5.63-8.53-9.37-19.92-9.37-16.36,0-23.21,9.87-23.21,19.27s6.75,19.15,23.59,19.15c10.75,0,16.18-3.69,19.45-9.01h5.31Z"/>
          <path class="cls-2" d="M355.24,690.98v43.72h-5.3v-43.72h5.3Z"/>
          <path class="cls-2" d="M389.29,734.71v-43.72h7.78c10.27,10.48,34.29,34.76,38.43,39.51h.1c-.57-6.27-.48-12.73-.48-19.85v-19.65h5.37v43.72h-7.21c-9.78-10.09-34.21-35.4-38.91-40.21h-.1c.47,5.71,.38,12.13,.38,20.06v20.15h-5.37Z"/>
          <path class="cls-2" d="M524.81,734.71h-4.39c-.38-.52-.58-2.75-.67-6.94-2.39,3-7.62,7.44-21.33,7.44-19.02,0-28.78-9.56-28.78-21.99,0-13.06,10.43-22.87,29.85-22.87,14.34,0,23.81,4.96,25.88,13.01h-5.3c-2.81-6.11-9.27-9.79-20.77-9.79-16.49,0-23.98,8.47-23.98,19.46,0,9.94,7.22,18.96,23.33,18.96s21.04-7.09,21.04-16.65v-.5h-21.23v-3.22h26.34v23.08Z"/>
          <path class="cls-2" d="M608.6,694.21h-22.18v-3.22h49.85v3.22h-22.27v40.5h-5.4v-40.5Z"/>
          <path class="cls-2" d="M699.76,713.28h-33.72v18.21h36.94l-.78,3.22h-41.46v-43.72h40.71v3.22h-35.42v15.85h33.72v3.22Z"/>
          <path class="cls-2" d="M739.01,719.7l-8.35,15.01h-5.39l24.27-43.72h6.31l25.31,43.72h-5.78l-8.54-15.01h-27.82Zm26.09-3.22c-7.32-12.91-11.09-19.15-12.42-22.11h-.09c-1.61,3.33-5.84,11.06-11.76,22.11h24.27Z"/>
          <path class="cls-2" d="M864.77,714.67c0-8.53,.1-16.72,.38-21.11h-.29c-2.66,5.94-15.94,27.34-24.32,41.14h-5.17c-6.31-10.71-20.06-34.54-23.08-41.2h-.2c.48,5,.67,15.16,.67,22.65v18.55h-5.28v-43.72h7.95c9,14.92,20.32,34.42,22.77,39.38h.19c1.52-3.24,14.63-24.9,23.82-39.38h7.84v43.72h-5.29v-20.03Z"/>
        </g>
      </g>
      <g>
        <path class="cls-9" d="M762.58,578.67h19c-.93,2.91-1.87,5.81-2.8,8.72h-19.02c.94-2.91,1.88-5.81,2.82-8.72Z"/>
        <path class="cls-11" d="M781.48,578.67h19c-.93,2.91-1.87,5.81-2.8,8.72h-19.02c.94-2.91,1.88-5.81,2.82-8.72Z"/>
        <path class="cls-10" d="M800.47,578.67h19c-.93,2.91-1.87,5.81-2.8,8.72h-19.02c.94-2.91,1.88-5.81,2.82-8.72Z"/>
      </g>
    </g>
    <text class="cls-7" transform="translate(524.65 771.54) scale(1.23 .79)"><tspan class="cls-17" x="0" y="0">L</tspan><tspan class="cls-14" x="19.43" y="0">IV</tspan><tspan class="cls-17" x="51.65" y="0">E </tspan><tspan class="cls-15" x="80.78" y="0">T</tspan><tspan class="cls-17" x="102.8" y="0">ELEM</tspan><tspan class="cls-13" x="196.01" y="0">E</tspan><tspan class="cls-18" x="217.39" y="0">T</tspan><tspan class="cls-12" x="239.41" y="0">R</tspan><tspan class="cls-16" x="260.86" y="0">Y</tspan></text>
  </g>
</svg>